<mxfile host="app.diagrams.net" modified="2023-12-30T22:01:21.939Z" agent="Mozilla/5.0 (Windows NT 10.0; Win64; x64) AppleWebKit/537.36 (KHTML, like Gecko) Chrome/120.0.0.0 Safari/537.36" etag="BfQtVQ1J2PNFSaw3ho-4" version="22.1.16" type="github">
  <diagram name="Page-1" id="S4sqa1EQOQ77Wi8Ryajt">
    <mxGraphModel dx="1644" dy="1512" grid="1" gridSize="10" guides="1" tooltips="1" connect="1" arrows="1" fold="1" page="1" pageScale="1" pageWidth="850" pageHeight="1100" math="0" shadow="0">
      <root>
        <mxCell id="0" />
        <mxCell id="1" parent="0" />
        <mxCell id="duRy-UWlUoUTumqvdSRS-1" value="" style="rounded=0;whiteSpace=wrap;html=1;" vertex="1" parent="1">
          <mxGeometry x="90" y="-50" width="690" height="390" as="geometry" />
        </mxCell>
        <mxCell id="duRy-UWlUoUTumqvdSRS-2" value="" style="outlineConnect=0;dashed=0;verticalLabelPosition=bottom;verticalAlign=top;align=center;html=1;shape=mxgraph.aws3.virtual_private_cloud;fillColor=#F58534;gradientColor=none;" vertex="1" parent="1">
          <mxGeometry x="140" y="-40" width="79.5" height="54" as="geometry" />
        </mxCell>
        <mxCell id="duRy-UWlUoUTumqvdSRS-4" value="" style="rounded=0;whiteSpace=wrap;html=1;strokeColor=#ff6600;" vertex="1" parent="1">
          <mxGeometry x="110" y="40" width="650" height="280" as="geometry" />
        </mxCell>
        <mxCell id="duRy-UWlUoUTumqvdSRS-5" value="" style="rounded=0;whiteSpace=wrap;html=1;strokeColor=#ff6600;" vertex="1" parent="1">
          <mxGeometry x="-220" y="-40" width="70" height="40" as="geometry" />
        </mxCell>
        <mxCell id="duRy-UWlUoUTumqvdSRS-6" value="Security Group" style="text;html=1;strokeColor=none;fillColor=none;align=center;verticalAlign=middle;whiteSpace=wrap;rounded=0;" vertex="1" parent="1">
          <mxGeometry x="-215" y="-35" width="60" height="30" as="geometry" />
        </mxCell>
        <mxCell id="duRy-UWlUoUTumqvdSRS-7" value="" style="rounded=0;whiteSpace=wrap;html=1;fillColor=#d5e8d4;strokeColor=#82b366;" vertex="1" parent="1">
          <mxGeometry x="140" y="110" width="270" height="180" as="geometry" />
        </mxCell>
        <mxCell id="duRy-UWlUoUTumqvdSRS-8" value="Availability Zone 1" style="text;html=1;strokeColor=none;fillColor=none;align=center;verticalAlign=middle;whiteSpace=wrap;rounded=0;" vertex="1" parent="1">
          <mxGeometry x="220" y="80" width="110" height="30" as="geometry" />
        </mxCell>
        <mxCell id="duRy-UWlUoUTumqvdSRS-9" value="" style="rounded=0;whiteSpace=wrap;html=1;fillColor=#d5e8d4;strokeColor=#82b366;" vertex="1" parent="1">
          <mxGeometry x="450" y="110" width="270" height="180" as="geometry" />
        </mxCell>
        <mxCell id="duRy-UWlUoUTumqvdSRS-10" value="Availability Zone 2" style="text;html=1;strokeColor=none;fillColor=none;align=center;verticalAlign=middle;whiteSpace=wrap;rounded=0;" vertex="1" parent="1">
          <mxGeometry x="530" y="80" width="110" height="30" as="geometry" />
        </mxCell>
        <mxCell id="duRy-UWlUoUTumqvdSRS-12" value="Public Subnet" style="text;html=1;strokeColor=none;fillColor=none;align=center;verticalAlign=middle;whiteSpace=wrap;rounded=0;" vertex="1" parent="1">
          <mxGeometry x="150" y="110" width="90" height="30" as="geometry" />
        </mxCell>
        <mxCell id="duRy-UWlUoUTumqvdSRS-13" value="Public Subnet" style="text;html=1;strokeColor=none;fillColor=none;align=center;verticalAlign=middle;whiteSpace=wrap;rounded=0;" vertex="1" parent="1">
          <mxGeometry x="450" y="110" width="90" height="30" as="geometry" />
        </mxCell>
        <mxCell id="duRy-UWlUoUTumqvdSRS-3" value="Amazon EC2" style="sketch=0;points=[[0,0,0],[0.25,0,0],[0.5,0,0],[0.75,0,0],[1,0,0],[0,1,0],[0.25,1,0],[0.5,1,0],[0.75,1,0],[1,1,0],[0,0.25,0],[0,0.5,0],[0,0.75,0],[1,0.25,0],[1,0.5,0],[1,0.75,0]];outlineConnect=0;fontColor=#232F3E;fillColor=#ED7100;strokeColor=#ffffff;dashed=0;verticalLabelPosition=bottom;verticalAlign=top;align=center;html=1;fontSize=12;fontStyle=0;aspect=fixed;shape=mxgraph.aws4.resourceIcon;resIcon=mxgraph.aws4.ec2;" vertex="1" parent="1">
          <mxGeometry x="236" y="161" width="78" height="78" as="geometry" />
        </mxCell>
        <mxCell id="duRy-UWlUoUTumqvdSRS-14" value="Amazon EC2" style="sketch=0;points=[[0,0,0],[0.25,0,0],[0.5,0,0],[0.75,0,0],[1,0,0],[0,1,0],[0.25,1,0],[0.5,1,0],[0.75,1,0],[1,1,0],[0,0.25,0],[0,0.5,0],[0,0.75,0],[1,0.25,0],[1,0.5,0],[1,0.75,0]];outlineConnect=0;fontColor=#232F3E;fillColor=#ED7100;strokeColor=#ffffff;dashed=0;verticalLabelPosition=bottom;verticalAlign=top;align=center;html=1;fontSize=12;fontStyle=0;aspect=fixed;shape=mxgraph.aws4.resourceIcon;resIcon=mxgraph.aws4.ec2;" vertex="1" parent="1">
          <mxGeometry x="546" y="161" width="78" height="78" as="geometry" />
        </mxCell>
        <mxCell id="duRy-UWlUoUTumqvdSRS-15" value="Elastic Load Balancing (ELB)" style="sketch=0;points=[[0,0,0],[0.25,0,0],[0.5,0,0],[0.75,0,0],[1,0,0],[0,1,0],[0.25,1,0],[0.5,1,0],[0.75,1,0],[1,1,0],[0,0.25,0],[0,0.5,0],[0,0.75,0],[1,0.25,0],[1,0.5,0],[1,0.75,0]];outlineConnect=0;fontColor=#232F3E;fillColor=#ED7100;strokeColor=#ffffff;dashed=0;verticalLabelPosition=bottom;verticalAlign=top;align=center;html=1;fontSize=12;fontStyle=0;aspect=fixed;shape=mxgraph.aws4.resourceIcon;resIcon=mxgraph.aws4.elastic_load_balancing;" vertex="1" parent="1">
          <mxGeometry x="396" y="410" width="78" height="78" as="geometry" />
        </mxCell>
        <mxCell id="duRy-UWlUoUTumqvdSRS-16" value="" style="endArrow=classic;html=1;rounded=0;entryX=0.5;entryY=1;entryDx=0;entryDy=0;exitX=0.5;exitY=0;exitDx=0;exitDy=0;exitPerimeter=0;" edge="1" parent="1" source="duRy-UWlUoUTumqvdSRS-15" target="duRy-UWlUoUTumqvdSRS-7">
          <mxGeometry width="50" height="50" relative="1" as="geometry">
            <mxPoint x="310" y="370" as="sourcePoint" />
            <mxPoint x="360" y="320" as="targetPoint" />
          </mxGeometry>
        </mxCell>
        <mxCell id="duRy-UWlUoUTumqvdSRS-17" value="" style="endArrow=classic;html=1;rounded=0;entryX=0.5;entryY=1;entryDx=0;entryDy=0;exitX=0.5;exitY=0;exitDx=0;exitDy=0;exitPerimeter=0;" edge="1" parent="1" source="duRy-UWlUoUTumqvdSRS-15" target="duRy-UWlUoUTumqvdSRS-9">
          <mxGeometry width="50" height="50" relative="1" as="geometry">
            <mxPoint x="445" y="420" as="sourcePoint" />
            <mxPoint x="285" y="300" as="targetPoint" />
          </mxGeometry>
        </mxCell>
      </root>
    </mxGraphModel>
  </diagram>
</mxfile>
